<svg width="19" height="4" viewBox="0 0 19 4" fill="none" xmlns="http://www.w3.org/2000/svg">
<path fill-rule="evenodd" clip-rule="evenodd" d="M2.5 4C3.60457 4 4.5 3.10457 4.5 2C4.5 0.895431 3.60457 0 2.5 0C1.39543 0 0.5 0.895431 0.5 2C0.5 3.10457 1.39543 4 2.5 4ZM11.5 2C11.5 3.10457 10.6046 4 9.5 4C8.39543 4 7.5 3.10457 7.5 2C7.5 0.895431 8.39543 0 9.5 0C10.6046 0 11.5 0.895431 11.5 2ZM18.5 2C18.5 3.10457 17.6046 4 16.5 4C15.3954 4 14.5 3.10457 14.5 2C14.5 0.895431 15.3954 0 16.5 0C17.6046 0 18.5 0.895431 18.5 2Z" fill="#323232" fill-opacity="0.3"/>
</svg>
