<svg width="336" height="52" viewBox="0 0 336 52" fill="none" xmlns="http://www.w3.org/2000/svg">
<g clip-path="url(#clip0_2301_6491)">
<g clip-path="url(#clip1_2301_6491)">
<path d="M330.743 51.4157H314.581L304.771 35.5437V51.4157H290.918V0.427002H304.771V31.1461L314.781 16.7432H329.947L317.429 32.6749L330.743 51.4157Z" fill="#E80404"/>
<path d="M219.331 16.7432L210.855 51.4157H196.069L191.925 32.8665L187.846 51.4157H173.059L164.584 16.7432H178.35L181.154 38.9864L185.934 16.7432H197.98L202.761 38.9864L205.565 16.7432H219.331Z" fill="#E80404"/>
<path d="M166.688 41.2167C166.688 48.0994 160.597 52.3699 149.925 52.3699C138.412 52.3699 133.11 49.5059 131.887 44.0223C131.588 42.6837 131.504 41.2167 131.504 40.1328H144.698C144.698 40.5152 144.739 41.4029 145.017 41.9815C145.536 43.06 146.655 43.7025 149.477 43.7025C152.375 43.7025 153.556 42.8107 153.556 41.6643C153.556 40.3257 152.801 39.6422 149.16 38.7317L142.02 36.9482C135.207 35.244 131.886 32.3584 131.886 26.3682C131.886 20.2497 138.261 15.5336 148.393 15.5336C158.005 15.5336 163.447 18.4648 165.029 23.0539C165.399 24.1338 165.666 27.1323 165.666 27.7693H152.792C152.792 27.4501 152.672 26.4979 152.536 26.2392C152.167 25.5423 150.949 24.7742 148.775 24.7742C145.952 24.7742 144.697 25.4113 144.697 26.5577C144.697 27.5778 146.151 27.8318 148.585 28.4696L156.359 30.5098C163.078 32.2697 166.688 35.2259 166.688 41.2167Z" fill="#E80404"/>
<path d="M132.845 16.7432L124.366 51.4157H109.58L105.439 32.8665L101.358 51.4157H86.5731L78.0945 16.7432H91.8624L94.6667 38.9864L99.4473 16.7432H111.492L116.273 38.9864L119.078 16.7432H132.845Z" fill="#E80404"/>
<path d="M43.1054 51.4157H28.7018L14.87 28.0879V51.4157H0.212341V0.61853H14.8075L28.2542 23.8173V0.61853H43.1054V51.4157Z" fill="#E80404"/>
<path d="M336.212 49.3742C336.212 50.6006 335.218 51.5945 333.993 51.5945C332.784 51.5945 331.778 50.5805 331.778 49.3742C331.778 48.1532 332.771 47.1553 333.993 47.1553C335.238 47.1553 336.212 48.1324 336.212 49.3742ZM335.871 49.3742C335.871 48.3319 335.045 47.5 333.999 47.5C332.957 47.5 332.132 48.3319 332.132 49.3742C332.132 50.3916 332.973 51.2457 333.994 51.2457C335.035 51.2457 335.871 50.4185 335.871 49.3742Z" fill="#E80404"/>
<path d="M290.011 34.3335C290.011 35.3361 290.035 36.3576 289.947 37.3918H267.58C267.58 40.7068 268.406 43.3188 272.298 43.3188C275.534 43.3188 276.629 41.6637 276.629 39.7505H289.759C289.759 47.2077 282.565 52.3693 272.298 52.3693C261.093 52.3693 254.003 45.4685 254.003 33.8228C254.003 22.5621 261.885 15.6593 272.422 15.6593C283.692 15.66 290.011 23.9975 290.011 34.3335ZM276.629 30.4453C276.629 27.2681 275.675 24.902 272.231 24.902C268.727 24.902 267.514 27.2432 267.514 30.4453H276.629Z" fill="#E80404"/>
<path d="M252.92 34.3335C252.92 35.3361 252.941 36.3576 252.857 37.3918H230.485C230.485 40.7068 231.567 43.3188 235.201 43.3188C238.442 43.3188 239.534 41.6637 239.534 39.7505H252.664C252.664 47.2077 245.475 52.3693 235.201 52.3693C224 52.3693 216.91 45.4685 216.91 33.8228C216.91 22.5621 224.789 15.6593 235.328 15.6593C246.596 15.66 252.92 23.9975 252.92 34.3335ZM239.534 30.4453C239.534 27.2681 238.834 24.902 235.138 24.902C231.633 24.902 230.421 27.2432 230.421 30.4453H239.534Z" fill="#E80404"/>
<path d="M80.39 34.3335C80.39 35.3361 80.4122 36.3576 80.3255 37.3918H57.8914C57.8914 40.7068 58.7207 43.3188 62.6082 43.3188C65.8486 43.3188 67.0071 41.6637 67.0071 39.7505H80.136C80.136 47.2077 72.8791 52.3693 62.6082 52.3693C51.4066 52.3693 44.3177 45.4685 44.3177 33.8228C44.3177 22.5621 52.1976 15.6593 62.7359 15.6593C74.0033 15.66 80.39 23.9975 80.39 34.3335ZM67.0071 30.4453C67.0071 27.2681 65.9225 24.902 62.5457 24.902C59.1037 24.902 57.829 27.2432 57.829 30.4453H67.0071Z" fill="#E80404"/>
<path d="M334.976 48.8735C334.976 49.1638 334.806 49.3842 334.426 49.4985L335.025 50.4951H334.423L333.96 49.5784H333.661V50.4951H333.172V48.1552H334.038C334.737 48.1545 334.976 48.467 334.976 48.8735ZM334.471 48.856C334.471 48.5604 334.263 48.4535 333.927 48.4535H333.661V49.2418H333.963C334.273 49.2418 334.471 49.1255 334.471 48.856Z" fill="#E80404"/>
<path d="M243.5 0.516357H246.524C248.061 0.516357 248.78 1.27841 248.78 2.25751C248.78 3.26148 248.137 4.13575 246.515 4.13575H245.504V5.89169H243.5V0.516357ZM246.155 2.97453C246.592 2.97453 246.826 2.70372 246.826 2.32605C246.826 1.96452 246.612 1.71521 246.163 1.71521H245.504V2.97453H246.155Z" fill="#E80404"/>
<path d="M250.628 4.07596V2.34825C250.628 1.03785 251.921 0.427002 253.397 0.427002C254.858 0.427002 256.209 0.939738 256.209 2.34825V4.0679C256.209 5.44751 254.839 5.98175 253.417 5.98175C251.929 5.98175 250.628 5.48582 250.628 4.07596ZM254.185 4.10553V2.29651C254.185 1.88927 253.828 1.68499 253.407 1.68499C252.913 1.68499 252.65 1.88121 252.65 2.29651V4.08201C252.65 4.48991 252.913 4.72444 253.427 4.72444C253.894 4.72444 254.185 4.49059 254.185 4.10553Z" fill="#E80404"/>
<path d="M258.172 0.516357H260.177V4.65655H262.987V5.89236H258.172V0.516357Z" fill="#E80404"/>
<path d="M264.463 5.22104L265.485 4.24866C265.882 4.52015 266.535 4.80642 267.129 4.80642C267.499 4.80642 267.818 4.67135 267.818 4.44421C267.818 4.2117 267.527 4.11359 267.187 4.01548L266.272 3.74332C265.32 3.45704 264.795 2.94431 264.795 2.18293C264.795 1.2334 265.795 0.433716 267.362 0.433716C268.219 0.433716 269.183 0.576852 269.82 1.05263L268.878 2.04047C268.5 1.79922 267.867 1.56469 267.421 1.56469C266.984 1.56469 266.73 1.71522 266.73 1.94101C266.73 2.20578 267.226 2.28104 267.654 2.42351L268.412 2.67954C269.453 3.03503 269.949 3.5397 269.949 4.22648C269.949 5.46162 268.518 5.98108 267.167 5.98108C266.136 5.98175 265.125 5.74924 264.463 5.22104Z" fill="#E80404"/>
<path d="M271.843 0.516357H273.848V2.85425L275.578 0.516357H277.524L275.88 2.64324L277.543 5.89236H275.374L274.373 3.789L273.849 4.36893V5.89236H271.844V0.516357H271.843Z" fill="#E80404"/>
<path d="M280.86 0.510376H283.407L285.351 5.89242H283.291L282.999 4.98724H281.005L280.713 5.89242H278.865L280.86 0.510376ZM282.6 3.81124L282.016 2.01767H281.985L281.413 3.81124H282.6Z" fill="#E80404"/>
</g>
</g>
<defs>
<clipPath id="clip0_2301_6491">
<rect width="336" height="52" fill="white"/>
</clipPath>
<clipPath id="clip1_2301_6491">
<rect width="336" height="52" fill="white"/>
</clipPath>
</defs>
</svg>
