<svg width="232" height="31" viewBox="0 0 232 31" fill="none" xmlns="http://www.w3.org/2000/svg">
<path fill-rule="evenodd" clip-rule="evenodd" d="M15 28.4961C21.9036 28.4961 27.5 22.8997 27.5 15.9961C27.5 9.09254 21.9036 3.49609 15 3.49609C8.09644 3.49609 2.5 9.09254 2.5 15.9961C2.5 22.8997 8.09644 28.4961 15 28.4961ZM17.0752 11.4586C17.4061 11.4586 17.9323 11.5168 18.3219 11.5947L18.6721 9.3938C17.9126 9.23797 17.3282 9.12109 16.5298 9.12109C14.2317 9.12109 13.3165 10.2119 13.3165 12.1594V13.5811H11.875V15.8797H13.3165V22.8711H16.121V15.8797H18.1656L18.3609 13.5811H16.121V12.4715C16.121 11.8482 16.1792 11.4586 17.0752 11.4586Z" fill="#000016"/>
<path fill-rule="evenodd" clip-rule="evenodd" d="M55 28.4961C61.9036 28.4961 67.5 22.8997 67.5 15.9961C67.5 9.09254 61.9036 3.49609 55 3.49609C48.0964 3.49609 42.5 9.09254 42.5 15.9961C42.5 22.8997 48.0964 28.4961 55 28.4961ZM58.0307 9.89131C57.2398 9.85522 57.0026 9.84757 55 9.84757C52.9974 9.84757 52.7602 9.85522 51.9694 9.89131C51.2381 9.92465 50.841 10.0468 50.5767 10.1495C50.2266 10.2856 49.9768 10.4481 49.7144 10.7106C49.4519 10.973 49.2894 11.2229 49.1533 11.5729C49.0506 11.8372 48.9284 12.2343 48.8951 12.9656C48.859 13.7564 48.8514 13.9936 48.8514 15.9962C48.8514 17.9988 48.859 18.236 48.8951 19.0268C48.9284 19.7581 49.0506 20.1552 49.1533 20.4195C49.2894 20.7696 49.4519 21.0194 49.7144 21.2818C49.9768 21.5443 50.2266 21.7068 50.5767 21.8429C50.841 21.9456 51.2381 22.0678 51.9694 22.1011C52.7601 22.1372 52.9973 22.1448 55 22.1448C57.0027 22.1448 57.2399 22.1372 58.0307 22.1011C58.7619 22.0678 59.159 21.9456 59.4233 21.8429C59.7734 21.7068 60.0232 21.5443 60.2857 21.2818C60.5481 21.0194 60.7106 20.7696 60.8467 20.4195C60.9494 20.1552 61.0716 19.7581 61.1049 19.0268C61.141 18.236 61.1487 17.9988 61.1487 15.9962C61.1487 13.9936 61.141 13.7564 61.1049 12.9656C61.0716 12.2343 60.9494 11.8372 60.8467 11.5729C60.7106 11.2229 60.5481 10.973 60.2857 10.7106C60.0232 10.4481 59.7734 10.2856 59.4233 10.1495C59.159 10.0468 58.7619 9.92465 58.0307 9.89131ZM51.9078 8.54136C52.7077 8.50486 52.9631 8.49623 55 8.49623C57.0369 8.49623 57.2923 8.50486 58.0923 8.54136C58.8905 8.57777 59.4357 8.70457 59.9128 8.88995C60.406 9.08162 60.8242 9.33807 61.2412 9.75501C61.6582 10.172 61.9146 10.5902 62.1063 11.0834C62.2917 11.5605 62.4185 12.1057 62.4549 12.904C62.4914 13.7039 62.5 13.9593 62.5 15.9962C62.5 18.0331 62.4914 18.2885 62.4549 19.0884C62.4185 19.8867 62.2917 20.4319 62.1063 20.909C61.9146 21.4022 61.6582 21.8204 61.2412 22.2374C60.8242 22.6543 60.406 22.9108 59.9128 23.1024C59.4357 23.2878 58.8905 23.4146 58.0923 23.451C57.2923 23.4875 57.0369 23.4962 55 23.4962C52.9631 23.4962 52.7077 23.4875 51.9078 23.451C51.1095 23.4146 50.5643 23.2878 50.0872 23.1024C49.594 22.9108 49.1758 22.6543 48.7588 22.2374C48.3419 21.8204 48.0854 21.4022 47.8938 20.909C47.7084 20.4319 47.5816 19.8867 47.5451 19.0884C47.5086 18.2885 47.5 18.0331 47.5 15.9962C47.5 13.9593 47.5086 13.7039 47.5451 12.904C47.5816 12.1057 47.7084 11.5605 47.8938 11.0834C48.0854 10.5902 48.3419 10.172 48.7588 9.75501C49.1758 9.33807 49.594 9.08162 50.0872 8.88995C50.5643 8.70457 51.1095 8.57777 51.9078 8.54136ZM55.0035 12.1483C52.8764 12.1483 51.1521 13.8726 51.1521 15.9996C51.1521 18.1267 52.8764 19.851 55.0035 19.851C57.1305 19.851 58.8548 18.1267 58.8548 15.9996C58.8548 13.8726 57.1305 12.1483 55.0035 12.1483ZM55.0035 18.4996C53.6228 18.4996 52.5035 17.3803 52.5035 15.9996C52.5035 14.6189 53.6228 13.4996 55.0035 13.4996C56.3842 13.4996 57.5035 14.6189 57.5035 15.9996C57.5035 17.3803 56.3842 18.4996 55.0035 18.4996ZM59.0067 12.8938C59.5038 12.8938 59.9067 12.4909 59.9067 11.9938C59.9067 11.4968 59.5038 11.0938 59.0067 11.0938C58.5097 11.0938 58.1067 11.4968 58.1067 11.9938C58.1067 12.4909 58.5097 12.8938 59.0067 12.8938Z" fill="#000016"/>
<path fill-rule="evenodd" clip-rule="evenodd" d="M95 28.4961C101.904 28.4961 107.5 22.8997 107.5 15.9961C107.5 9.09254 101.904 3.49609 95 3.49609C88.0964 3.49609 82.5 9.09254 82.5 15.9961C82.5 22.8997 88.0964 28.4961 95 28.4961ZM100.733 11.6737C101.355 11.5992 101.949 11.4342 102.5 11.1892C102.088 11.8062 101.566 12.3482 100.964 12.7831C100.97 12.9146 100.973 13.0476 100.973 13.1811C100.973 17.2473 97.8773 21.9365 92.2172 21.9365C90.4793 21.9365 88.8619 21.4266 87.5 20.5536C87.7405 20.5826 87.9855 20.5971 88.2344 20.5971C89.6764 20.5971 91.0033 20.1047 92.0562 19.2797C90.7098 19.2547 89.5729 18.3648 89.1814 17.1423C89.3694 17.1783 89.5624 17.1978 89.7608 17.1978C90.0413 17.1978 90.3133 17.1598 90.5713 17.0899C89.1644 16.8064 88.103 15.563 88.103 14.0716V14.0331C88.5184 14.2635 88.9924 14.402 89.4974 14.418C88.6709 13.8661 88.1285 12.9241 88.1285 11.8567C88.1285 11.2927 88.2799 10.7643 88.5449 10.3098C90.0628 12.1717 92.3302 13.3971 94.888 13.5251C94.8355 13.2996 94.808 13.0646 94.808 12.8236C94.808 11.1242 96.1859 9.74634 97.8853 9.74634C98.7697 9.74634 99.5702 10.1203 100.132 10.7183C100.832 10.5798 101.492 10.3243 102.086 9.97132C101.856 10.6898 101.368 11.2927 100.733 11.6737Z" fill="#000016"/>
<path fill-rule="evenodd" clip-rule="evenodd" d="M147.5 15.9961C147.5 22.8997 141.904 28.4961 135 28.4961C128.096 28.4961 122.5 22.8997 122.5 15.9961C122.5 9.09254 128.096 3.49609 135 3.49609C141.904 3.49609 147.5 9.09254 147.5 15.9961ZM131.734 9.92364C131.734 10.7018 131.142 11.3316 130.215 11.3316C129.325 11.3316 128.732 10.7018 128.75 9.92364C128.732 9.10764 129.325 8.49622 130.233 8.49622C131.142 8.49622 131.716 9.10764 131.734 9.92364ZM128.825 21.5075V12.4438H131.642V21.5075H128.825ZM133.825 12.4452C133.863 13.2423 133.9 14.2061 133.9 15.3367H133.901V21.5095H136.718V16.2822C136.718 16.0221 136.755 15.7631 136.829 15.5774C137.014 15.0588 137.477 14.5213 138.256 14.5213C139.275 14.5213 139.683 15.3178 139.683 16.4862V21.5095H142.5V16.1333C142.5 13.4652 141.11 12.2418 139.257 12.2418C137.755 12.2418 136.829 13.1122 136.458 13.687H136.402L136.272 12.4452H133.825Z" fill="#000016"/>
<rect x="163" y="3.04785" width="25" height="25" rx="12.5" fill="#000016"/>
<path d="M182.684 11.7388C182.598 11.4217 182.431 11.1326 182.199 10.9004C181.967 10.6682 181.678 10.501 181.36 10.4157C180.193 10.0996 175.5 10.0996 175.5 10.0996C175.5 10.0996 170.807 10.0996 169.64 10.4157C169.322 10.501 169.033 10.6682 168.801 10.9004C168.569 11.1326 168.402 11.4217 168.316 11.7388C168.098 12.9298 167.993 14.1386 168 15.3493C167.993 16.5601 168.098 17.7689 168.316 18.9598C168.402 19.277 168.569 19.5661 168.801 19.7983C169.033 20.0305 169.322 20.1976 169.64 20.283C170.807 20.599 175.5 20.599 175.5 20.599C175.5 20.599 180.193 20.599 181.36 20.283C181.678 20.1976 181.967 20.0305 182.199 19.7983C182.431 19.5661 182.598 19.277 182.684 18.9598C182.902 17.7689 183.007 16.5601 183 15.3493C183.007 14.1386 182.902 12.9298 182.684 11.7388ZM174 17.5992V13.0994L177.895 15.3493L174 17.5992Z" fill="white"/>
<rect x="204" y="3.04785" width="25" height="25" rx="12.5" fill="#000016"/>
<path d="M221.113 22.8135H224C224 14.676 217.269 8.04785 209 8.04785V10.8791C215.675 10.8791 221.113 16.2322 221.113 22.8135ZM216.012 22.8135H218.9C218.9 17.4416 214.456 13.0635 209 13.0635V15.8947C210.875 15.8947 212.628 16.6166 213.959 17.9197C214.611 18.5574 215.128 19.3188 215.48 20.1592C215.833 20.9997 216.014 21.9021 216.012 22.8135ZM210.997 22.7947C212.094 22.7947 212.994 21.9229 212.994 20.8354C212.994 19.7572 212.094 18.876 210.997 18.876C209.891 18.876 209 19.7572 209 20.8354C209 21.9229 209.891 22.7947 210.997 22.7947Z" fill="white"/>
</svg>
