<svg width="112" height="71" viewBox="0 0 112 71" fill="none" xmlns="http://www.w3.org/2000/svg">
<path fill-rule="evenodd" clip-rule="evenodd" d="M15 28.2559C21.9036 28.2559 27.5 22.6594 27.5 15.7559C27.5 8.8523 21.9036 3.25586 15 3.25586C8.09644 3.25586 2.5 8.8523 2.5 15.7559C2.5 22.6594 8.09644 28.2559 15 28.2559ZM17.0752 11.2184C17.4061 11.2184 17.9323 11.2766 18.3219 11.3545L18.6721 9.15357C17.9126 8.99774 17.3282 8.88086 16.5298 8.88086C14.2317 8.88086 13.3165 9.97169 13.3165 11.9192V13.3409H11.875V15.6394H13.3165V22.6309H16.121V15.6394H18.1656L18.3609 13.3409H16.121V12.2313C16.121 11.6079 16.1792 11.2184 17.0752 11.2184Z" fill="#000016"/>
<path fill-rule="evenodd" clip-rule="evenodd" d="M55 28.2559C61.9036 28.2559 67.5 22.6594 67.5 15.7559C67.5 8.8523 61.9036 3.25586 55 3.25586C48.0964 3.25586 42.5 8.8523 42.5 15.7559C42.5 22.6594 48.0964 28.2559 55 28.2559ZM58.0307 9.65107C57.2398 9.61499 57.0026 9.60734 55 9.60734C52.9974 9.60734 52.7602 9.61499 51.9694 9.65107C51.2381 9.68442 50.841 9.8066 50.5767 9.90931C50.2266 10.0454 49.9768 10.2079 49.7144 10.4703C49.4519 10.7328 49.2894 10.9826 49.1533 11.3327C49.0506 11.597 48.9284 11.9941 48.8951 12.7253C48.859 13.5162 48.8514 13.7534 48.8514 15.756C48.8514 17.7585 48.859 17.9958 48.8951 18.7866C48.9284 19.5178 49.0506 19.915 49.1533 20.1792C49.2894 20.5293 49.4519 20.7792 49.7144 21.0416C49.9768 21.3041 50.2266 21.4666 50.5767 21.6026C50.841 21.7053 51.2381 21.8275 51.9694 21.8609C52.7601 21.8969 52.9973 21.9046 55 21.9046C57.0027 21.9046 57.2399 21.8969 58.0307 21.8609C58.7619 21.8275 59.159 21.7053 59.4233 21.6026C59.7734 21.4666 60.0232 21.3041 60.2857 21.0416C60.5481 20.7792 60.7106 20.5293 60.8467 20.1792C60.9494 19.915 61.0716 19.5178 61.1049 18.7866C61.141 17.9958 61.1487 17.7585 61.1487 15.756C61.1487 13.7534 61.141 13.5162 61.1049 12.7253C61.0716 11.9941 60.9494 11.597 60.8467 11.3327C60.7106 10.9826 60.5481 10.7328 60.2857 10.4703C60.0232 10.2079 59.7734 10.0454 59.4233 9.90931C59.159 9.8066 58.7619 9.68442 58.0307 9.65107ZM51.9078 8.30113C52.7077 8.26463 52.9631 8.25599 55 8.25599C57.0369 8.25599 57.2923 8.26463 58.0923 8.30113C58.8905 8.33754 59.4357 8.46433 59.9128 8.64972C60.406 8.84139 60.8242 9.09783 61.2412 9.51478C61.6582 9.93176 61.9146 10.35 62.1063 10.8432C62.2917 11.3203 62.4185 11.8655 62.4549 12.6637C62.4914 13.4637 62.5 13.7191 62.5 15.756C62.5 17.7928 62.4914 18.0482 62.4549 18.8482C62.4185 19.6465 62.2917 20.1917 62.1063 20.6687C61.9146 21.1619 61.6582 21.5802 61.2412 21.9972C60.8242 22.4141 60.406 22.6706 59.9128 22.8622C59.4357 23.0476 58.8905 23.1744 58.0923 23.2108C57.2923 23.2473 57.0369 23.2559 55 23.2559C52.9631 23.2559 52.7077 23.2473 51.9078 23.2108C51.1095 23.1744 50.5643 23.0476 50.0872 22.8622C49.594 22.6706 49.1758 22.4141 48.7588 21.9972C48.3419 21.5802 48.0854 21.1619 47.8938 20.6687C47.7084 20.1917 47.5816 19.6465 47.5451 18.8482C47.5086 18.0482 47.5 17.7928 47.5 15.756C47.5 13.7191 47.5086 13.4637 47.5451 12.6637C47.5816 11.8655 47.7084 11.3203 47.8938 10.8432C48.0854 10.35 48.3419 9.93176 48.7588 9.51478C49.1758 9.09783 49.594 8.84139 50.0872 8.64972C50.5643 8.46433 51.1095 8.33754 51.9078 8.30113ZM55.0035 11.9081C52.8764 11.9081 51.1521 13.6324 51.1521 15.7594C51.1521 17.8864 52.8764 19.6107 55.0035 19.6107C57.1305 19.6107 58.8548 17.8864 58.8548 15.7594C58.8548 13.6324 57.1305 11.9081 55.0035 11.9081ZM55.0035 18.2594C53.6228 18.2594 52.5035 17.1401 52.5035 15.7594C52.5035 14.3787 53.6228 13.2594 55.0035 13.2594C56.3842 13.2594 57.5035 14.3787 57.5035 15.7594C57.5035 17.1401 56.3842 18.2594 55.0035 18.2594ZM59.0067 12.6536C59.5038 12.6536 59.9067 12.2506 59.9067 11.7536C59.9067 11.2565 59.5038 10.8536 59.0067 10.8536C58.5097 10.8536 58.1067 11.2565 58.1067 11.7536C58.1067 12.2506 58.5097 12.6536 59.0067 12.6536Z" fill="#000016"/>
<path fill-rule="evenodd" clip-rule="evenodd" d="M95 28.2559C101.904 28.2559 107.5 22.6594 107.5 15.7559C107.5 8.8523 101.904 3.25586 95 3.25586C88.0964 3.25586 82.5 8.8523 82.5 15.7559C82.5 22.6594 88.0964 28.2559 95 28.2559ZM100.733 11.4335C101.355 11.359 101.949 11.194 102.5 10.949C102.088 11.566 101.566 12.1079 100.964 12.5429C100.97 12.6744 100.973 12.8074 100.973 12.9409C100.973 17.0071 97.8773 21.6963 92.2172 21.6963C90.4793 21.6963 88.8619 21.1863 87.5 20.3134C87.7405 20.3424 87.9855 20.3569 88.2344 20.3569C89.6764 20.3569 91.0033 19.8644 92.0562 19.0395C90.7098 19.0145 89.5729 18.1245 89.1814 16.9021C89.3694 16.9381 89.5624 16.9576 89.7608 16.9576C90.0413 16.9576 90.3133 16.9196 90.5713 16.8496C89.1644 16.5661 88.103 15.3227 88.103 13.8313V13.7928C88.5184 14.0233 88.9924 14.1618 89.4974 14.1778C88.6709 13.6258 88.1285 12.6839 88.1285 11.6165C88.1285 11.0525 88.2799 10.524 88.5449 10.0696C90.0628 11.9314 92.3302 13.1569 94.888 13.2849C94.8355 13.0594 94.808 12.8244 94.808 12.5834C94.808 10.884 96.1859 9.5061 97.8853 9.5061C98.7697 9.5061 99.5702 9.88008 100.132 10.478C100.832 10.3395 101.492 10.0841 102.086 9.73109C101.856 10.4495 101.368 11.0525 100.733 11.4335Z" fill="#000016"/>
<path fill-rule="evenodd" clip-rule="evenodd" d="M27.5 55.7559C27.5 62.6594 21.9036 68.2559 15 68.2559C8.09644 68.2559 2.5 62.6594 2.5 55.7559C2.5 48.8523 8.09644 43.2559 15 43.2559C21.9036 43.2559 27.5 48.8523 27.5 55.7559ZM11.7342 49.6834C11.7342 50.4616 11.1417 51.0914 10.2151 51.0914C9.3246 51.0914 8.73208 50.4616 8.75041 49.6834C8.73208 48.8674 9.32458 48.256 10.2328 48.256C11.1417 48.256 11.7165 48.8674 11.7342 49.6834ZM8.82491 61.2673V52.2036H11.642V61.2673H8.82491ZM13.8253 52.205C13.8626 53.0021 13.8998 53.9659 13.8998 55.0965H13.901V61.2692H16.718V56.042C16.718 55.7818 16.7547 55.5228 16.8292 55.3372C17.0143 54.8186 17.4773 54.2811 18.2561 54.2811C19.2755 54.2811 19.6829 55.0776 19.6829 56.246V61.2692H22.5V55.893C22.5 53.225 21.1098 52.0015 19.2566 52.0015C17.7552 52.0015 16.8286 52.872 16.4579 53.4467H16.4023L16.2722 52.205H13.8253Z" fill="#000016"/>
<rect x="43" y="42.8076" width="25" height="25" rx="12.5" fill="#000016"/>
<path d="M62.6835 51.4986C62.5982 51.1815 62.431 50.8923 62.1988 50.6601C61.9666 50.4279 61.6775 50.2608 61.3604 50.1754C60.1926 49.8594 55.5 49.8594 55.5 49.8594C55.5 49.8594 50.8074 49.8594 49.6396 50.1754C49.3225 50.2608 49.0334 50.4279 48.8012 50.6601C48.569 50.8923 48.4018 51.1815 48.3165 51.4986C48.0984 52.6895 47.9926 53.8983 48.0004 55.1091C47.9926 56.3198 48.0984 57.5286 48.3165 58.7196C48.4018 59.0367 48.569 59.3258 48.8012 59.558C49.0334 59.7903 49.3225 59.9574 49.6396 60.0428C50.8074 60.3588 55.5 60.3588 55.5 60.3588C55.5 60.3588 60.1926 60.3588 61.3604 60.0428C61.6775 59.9574 61.9666 59.7903 62.1988 59.558C62.431 59.3258 62.5982 59.0367 62.6835 58.7196C62.9016 57.5286 63.0074 56.3198 62.9996 55.1091C63.0074 53.8983 62.9016 52.6895 62.6835 51.4986ZM54.0001 57.359V52.8592L57.8945 55.1091L54.0001 57.359Z" fill="white"/>
<rect x="84" y="42.8076" width="25" height="25" rx="12.5" fill="#000016"/>
<path d="M101.113 62.5732H104C104 54.4357 97.2687 47.8076 89 47.8076V50.6389C95.675 50.6389 101.113 55.992 101.113 62.5732ZM96.0125 62.5732H98.9C98.9 57.2014 94.4563 52.8232 89 52.8232V55.6545C90.875 55.6545 92.6281 56.3764 93.9594 57.6795C94.6105 58.3172 95.1276 59.0786 95.4802 59.919C95.8328 60.7594 96.0138 61.6619 96.0125 62.5732ZM90.9969 62.5545C92.0938 62.5545 92.9938 61.6826 92.9938 60.5951C92.9938 59.517 92.0938 58.6357 90.9969 58.6357C89.8906 58.6357 89 59.517 89 60.5951C89 61.6826 89.8906 62.5545 90.9969 62.5545Z" fill="white"/>
</svg>
